<svg xmlns="http://www.w3.org/2000/svg" xmlns:xlink="http://www.w3.org/1999/xlink" viewBox="0 0 1919.29 190"><defs><style>.cls-1{isolation:isolate;}.cls-2{fill:url(#Gradiente_sem_nome_6);}.cls-3,.cls-4,.cls-5,.cls-6,.cls-7{opacity:0.5;mix-blend-mode:overlay;}.cls-3{fill:url(#linear-gradient);}.cls-4{fill:url(#linear-gradient-2);}.cls-5{fill:url(#linear-gradient-3);}.cls-6{fill:url(#linear-gradient-4);}.cls-7{fill:url(#Gradiente_sem_nome_24);}</style><linearGradient id="Gradiente_sem_nome_6" x1="2659.82" y1="1899.63" x2="2657.27" y2="2080.11" gradientTransform="translate(3618.57 2057.65) rotate(180)" gradientUnits="userSpaceOnUse"><stop offset="0" stop-color="#fff"/><stop offset="0.5" stop-color="#c3ebf4"/><stop offset="1" stop-color="#0664ac"/></linearGradient><linearGradient id="linear-gradient" x1="2380.08" y1="1913.37" x2="2377.8" y2="2075.25" gradientTransform="translate(3618.57 2057.65) rotate(180)" gradientUnits="userSpaceOnUse"><stop offset="0" stop-color="#fff"/><stop offset="1" stop-color="#fff" stop-opacity="0"/></linearGradient><linearGradient id="linear-gradient-2" x1="2982.17" y1="1760.33" x2="2672.78" y2="2018.16" xlink:href="#linear-gradient"/><linearGradient id="linear-gradient-3" x1="2807.36" y1="1894.71" x2="2555.94" y2="2104.23" xlink:href="#linear-gradient"/><linearGradient id="linear-gradient-4" x1="2660.92" y1="1882.46" x2="2658.12" y2="2081.02" xlink:href="#linear-gradient"/><linearGradient id="Gradiente_sem_nome_24" x1="2704.21" y1="1851.52" x2="2587.03" y2="2182.25" gradientTransform="translate(3618.57 2057.65) rotate(180)" gradientUnits="userSpaceOnUse"><stop offset="0" stop-color="#fff"/><stop offset="0.5" stop-color="#c3ebf4"/></linearGradient></defs><g class="cls-1"><g id="Camada_1" data-name="Camada 1"><rect class="cls-2" width="1919.29" height="190"/><path class="cls-3" d="M1919.29,118.33V0H560.1c178.78,5,370.15,14.22,563,27.86C1458.72,51.6,1737.18,84.29,1919.29,118.33Z"/><path class="cls-4" d="M1919.29,55.9V0H0V53.75C244.29,33.61,578.46,21.19,947,21.19,1328.42,21.19,1673,34.49,1919.29,55.9Z"/><path class="cls-5" d="M100.28,190c-41.44-12.24-64.05-25.45-64.05-39.23,0-63.17,475-114.38,1060.86-114.38,331.61,0,627.66,16.4,822.2,42.1V0H0V190Z"/><path class="cls-6" d="M1919.29,67.52V0H0V94C573.62-16.58,1623.78,46.62,1919.29,67.52Z"/><path class="cls-7" d="M1919.29,156.64V0H0V114.38C684.67,16.23,1556.56,109.08,1919.29,156.64Z"/></g></g></svg>